<?xml version="1.0" encoding="UTF-8" standalone="no"?>
<!-- Created with Inkscape (http://www.inkscape.org/) -->

<svg
   xmlns:dc="http://purl.org/dc/elements/1.1/"
   xmlns:cc="http://creativecommons.org/ns#"
   xmlns:rdf="http://www.w3.org/1999/02/22-rdf-syntax-ns#"
   xmlns:svg="http://www.w3.org/2000/svg"
   xmlns="http://www.w3.org/2000/svg"
   xmlns:sodipodi="http://sodipodi.sourceforge.net/DTD/sodipodi-0.dtd"
   xmlns:inkscape="http://www.inkscape.org/namespaces/inkscape"
   id="svg2"
   version="1.1"
   inkscape:version="0.91 r13725"
   xml:space="preserve"
   width="100"
   height="100"
   viewBox="0 0 100 99.999999"
   sodipodi:docname="audition-competition.svg"><metadata
     id="metadata8"><rdf:RDF><cc:Work
         rdf:about=""><dc:format>image/svg+xml</dc:format><dc:type
           rdf:resource="http://purl.org/dc/dcmitype/StillImage" /><dc:title></dc:title></cc:Work></rdf:RDF></metadata><defs
     id="defs6"><clipPath
       clipPathUnits="userSpaceOnUse"
       id="clipPath16"><path
         d="M 0,0 800,0 800,800 0,800 0,0 Z"
         id="path18"
         inkscape:connector-curvature="0" /></clipPath><radialGradient
       fx="0"
       fy="0"
       cx="0"
       cy="0"
       r="1"
       gradientUnits="userSpaceOnUse"
       gradientTransform="matrix(347.29813,347.29813,347.29813,-347.29813,409.0918,387.91016)"
       spreadMethod="pad"
       id="radialGradient24"><stop
         style="stop-opacity:1;stop-color:#ffffff"
         offset="0"
         id="stop26" /><stop
         style="stop-opacity:1;stop-color:#ffffff"
         offset="0.228928"
         id="stop28" /><stop
         style="stop-opacity:1;stop-color:#9db3c0"
         offset="1"
         id="stop30" /></radialGradient><clipPath
       clipPathUnits="userSpaceOnUse"
       id="clipPath38"><path
         d="M 0,800 800,800 800,0 0,0 0,800 Z"
         id="path40"
         inkscape:connector-curvature="0" /></clipPath><clipPath
       clipPathUnits="userSpaceOnUse"
       id="clipPath158"><path
         d="m 179.614,164.774 440.772,0 0,-70.815 -440.772,0 0,70.815 z"
         id="path160"
         inkscape:connector-curvature="0" /></clipPath><clipPath
       clipPathUnits="userSpaceOnUse"
       id="clipPath162"><path
         d="m 620.386,129.369 c 0,-19.558 -98.667,-35.41 -220.388,-35.41 -121.714,0 -220.384,15.852 -220.384,35.41 0,19.556 98.67,35.405 220.384,35.405 121.721,0 220.388,-15.849 220.388,-35.405"
         id="path164"
         inkscape:connector-curvature="0" /></clipPath><clipPath
       clipPathUnits="userSpaceOnUse"
       id="clipPath166"><path
         d="m -32767,32767 65534,0 0,-65534 -65534,0 0,65534 z"
         id="path168"
         inkscape:connector-curvature="0" /></clipPath><radialGradient
       fx="0"
       fy="0"
       cx="0"
       cy="0"
       r="1"
       gradientUnits="userSpaceOnUse"
       gradientTransform="matrix(207.65134,0,0,-29.743011,400.00049,129.36621)"
       spreadMethod="pad"
       id="radialGradient170"><stop
         style="stop-opacity:1;stop-color:#ffffff"
         offset="0"
         id="stop172" /><stop
         style="stop-opacity:0;stop-color:#ffffff"
         offset="1"
         id="stop174" /></radialGradient><mask
       maskUnits="userSpaceOnUse"
       x="0"
       y="0"
       width="1"
       height="1"
       id="mask176"><g
         id="g178"><g
           clip-path="url(#clipPath166)"
           id="g180"><g
             id="g182"><g
               id="g184"><path
                 d="m -32767,32767 65534,0 0,-65534 -65534,0 0,65534 z"
                 style="fill:url(#radialGradient170);stroke:none"
                 id="path186"
                 inkscape:connector-curvature="0" /></g></g></g></g></mask><radialGradient
       fx="0"
       fy="0"
       cx="0"
       cy="0"
       r="1"
       gradientUnits="userSpaceOnUse"
       gradientTransform="matrix(207.65134,0,0,-29.743011,400.00049,129.36621)"
       spreadMethod="pad"
       id="radialGradient188"><stop
         style="stop-opacity:1;stop-color:#808080"
         offset="0"
         id="stop190" /><stop
         style="stop-opacity:1;stop-color:#cccbcb"
         offset="1"
         id="stop192" /></radialGradient></defs><sodipodi:namedview
     pagecolor="#ffffff"
     bordercolor="#666666"
     borderopacity="1"
     objecttolerance="10"
     gridtolerance="10"
     guidetolerance="10"
     inkscape:pageopacity="0"
     inkscape:pageshadow="2"
     inkscape:window-width="1440"
     inkscape:window-height="851"
     id="namedview4"
     showgrid="false"
     fit-margin-top="0"
     fit-margin-left="0"
     fit-margin-right="0"
     fit-margin-bottom="0"
     inkscape:zoom="7.2407734"
     inkscape:cx="33.894404"
     inkscape:cy="61.811893"
     inkscape:window-x="0"
     inkscape:window-y="1"
     inkscape:window-maximized="1"
     inkscape:current-layer="g34" /><g
     id="g10"
     inkscape:groupmode="layer"
     inkscape:label="338"
     transform="matrix(1.25,0,0,-1.25,-186.90403,205.44546)"><g
       id="g34"><circle
         style="fill:#00dde5;fill-opacity:1"
         id="circle4738"
         cx="189.52322"
         cy="124.35637"
         r="40" /><path
         style="fill:#ffffff"
         d="m 179.83895,98.169929 c -0.29917,0.149455 -0.58166,0.445148 -0.74508,0.779915 -0.23886,0.489283 -0.24523,0.590081 -0.0689,1.088946 0.1069,0.30236 0.36917,0.67927 0.58281,0.83757 0.37057,0.27459 0.57798,0.28968 4.50891,0.32804 l 4.12048,0.0402 0,4.38265 0,4.38266 -0.43024,0.086 c -0.23663,0.0473 -0.60042,0.0861 -0.80841,0.0861 -0.75083,0 -3.06363,0.68719 -4.3066,1.27961 -1.52147,0.72514 -3.20154,1.94783 -4.21279,3.06587 -1.50132,1.65988 -2.85071,4.13386 -3.37596,6.18954 -0.29668,1.1611 -0.48962,3.45072 -0.33729,4.00243 0.26963,0.97651 1.38772,1.43302 2.32398,0.94886 0.56227,-0.29076 0.77614,-0.78496 0.89272,-2.06282 0.37671,-4.12918 2.70015,-7.51922 6.33081,-9.237 1.61746,-0.76527 2.90649,-1.01992 5.16287,-1.01992 2.35098,0 3.55493,0.24966 5.31662,1.10249 1.10012,0.53256 1.63083,0.89815 2.52529,1.7396 2.29317,2.15725 3.3785,4.40443 3.70986,7.68132 0.12407,1.22695 0.17868,1.40826 0.52998,1.75956 0.5047,0.50469 1.21571,0.62635 1.86366,0.31889 0.91694,-0.43512 1.1126,-1.43208 0.72136,-3.67561 -0.83842,-4.80789 -3.69758,-8.7012 -7.93695,-10.80772 -1.21409,-0.60329 -3.47919,-1.2851 -4.26929,-1.2851 l -0.39537,0 0,-4.4687 0,-4.4687 4.12047,-0.0402 c 3.93093,-0.0384 4.13835,-0.0534 4.50891,-0.32804 0.21364,-0.1583 0.47591,-0.53521 0.58282,-0.83757 0.17639,-0.498865 0.17001,-0.599663 -0.0689,-1.088946 -0.52144,-1.068172 -0.0187,-1.020635 -10.79549,-1.020635 -8.83413,0 -9.60552,0.01847 -10.0504,0.24072 z m 7.1592,17.596271 c -3.04117,0.65552 -5.62015,3.25968 -6.26369,6.32485 -0.2995,1.4265 -0.2995,20.73947 0,22.16596 0.6506,3.09881 3.23372,5.68193 6.33252,6.33253 1.23389,0.25906 3.30945,0.25906 4.54334,0 3.0988,-0.6506 5.68192,-3.23372 6.33252,-6.33253 0.2995,-1.42649 0.2995,-20.73946 0,-22.16596 -0.6506,-3.09879 -3.23372,-5.68192 -6.33252,-6.33253 -1.19796,-0.2515 -3.42696,-0.24781 -4.61217,0.008 z"
         id="path4897"
         inkscape:connector-curvature="0" /></g></g></svg>