<?xml version="1.0" encoding="UTF-8" standalone="no"?>
<!-- Created with Inkscape (http://www.inkscape.org/) -->

<svg
   xmlns:dc="http://purl.org/dc/elements/1.1/"
   xmlns:cc="http://creativecommons.org/ns#"
   xmlns:rdf="http://www.w3.org/1999/02/22-rdf-syntax-ns#"
   xmlns:svg="http://www.w3.org/2000/svg"
   xmlns="http://www.w3.org/2000/svg"
   xmlns:sodipodi="http://sodipodi.sourceforge.net/DTD/sodipodi-0.dtd"
   xmlns:inkscape="http://www.inkscape.org/namespaces/inkscape"
   id="svg2"
   version="1.1"
   inkscape:version="0.91 r13725"
   xml:space="preserve"
   width="100"
   height="100"
   viewBox="0 0 100 99.999999"
   sodipodi:docname="audio-video-recording.svg"><metadata
     id="metadata8"><rdf:RDF><cc:Work
         rdf:about=""><dc:format>image/svg+xml</dc:format><dc:type
           rdf:resource="http://purl.org/dc/dcmitype/StillImage" /><dc:title></dc:title></cc:Work></rdf:RDF></metadata><defs
     id="defs6"><clipPath
       clipPathUnits="userSpaceOnUse"
       id="clipPath16"><path
         d="M 0,0 800,0 800,800 0,800 0,0 Z"
         id="path18"
         inkscape:connector-curvature="0" /></clipPath><radialGradient
       fx="0"
       fy="0"
       cx="0"
       cy="0"
       r="1"
       gradientUnits="userSpaceOnUse"
       gradientTransform="matrix(347.29813,347.29813,347.29813,-347.29813,409.0918,387.91016)"
       spreadMethod="pad"
       id="radialGradient24"><stop
         style="stop-opacity:1;stop-color:#ffffff"
         offset="0"
         id="stop26" /><stop
         style="stop-opacity:1;stop-color:#ffffff"
         offset="0.228928"
         id="stop28" /><stop
         style="stop-opacity:1;stop-color:#9db3c0"
         offset="1"
         id="stop30" /></radialGradient><clipPath
       clipPathUnits="userSpaceOnUse"
       id="clipPath38"><path
         d="M 0,800 800,800 800,0 0,0 0,800 Z"
         id="path40"
         inkscape:connector-curvature="0" /></clipPath><clipPath
       clipPathUnits="userSpaceOnUse"
       id="clipPath158"><path
         d="m 179.614,164.774 440.772,0 0,-70.815 -440.772,0 0,70.815 z"
         id="path160"
         inkscape:connector-curvature="0" /></clipPath><clipPath
       clipPathUnits="userSpaceOnUse"
       id="clipPath162"><path
         d="m 620.386,129.369 c 0,-19.558 -98.667,-35.41 -220.388,-35.41 -121.714,0 -220.384,15.852 -220.384,35.41 0,19.556 98.67,35.405 220.384,35.405 121.721,0 220.388,-15.849 220.388,-35.405"
         id="path164"
         inkscape:connector-curvature="0" /></clipPath><clipPath
       clipPathUnits="userSpaceOnUse"
       id="clipPath166"><path
         d="m -32767,32767 65534,0 0,-65534 -65534,0 0,65534 z"
         id="path168"
         inkscape:connector-curvature="0" /></clipPath><radialGradient
       fx="0"
       fy="0"
       cx="0"
       cy="0"
       r="1"
       gradientUnits="userSpaceOnUse"
       gradientTransform="matrix(207.65134,0,0,-29.743011,400.00049,129.36621)"
       spreadMethod="pad"
       id="radialGradient170"><stop
         style="stop-opacity:1;stop-color:#ffffff"
         offset="0"
         id="stop172" /><stop
         style="stop-opacity:0;stop-color:#ffffff"
         offset="1"
         id="stop174" /></radialGradient><mask
       maskUnits="userSpaceOnUse"
       x="0"
       y="0"
       width="1"
       height="1"
       id="mask176"><g
         id="g178"><g
           clip-path="url(#clipPath166)"
           id="g180"><g
             id="g182"><g
               id="g184"><path
                 d="m -32767,32767 65534,0 0,-65534 -65534,0 0,65534 z"
                 style="fill:url(#radialGradient170);stroke:none"
                 id="path186"
                 inkscape:connector-curvature="0" /></g></g></g></g></mask><radialGradient
       fx="0"
       fy="0"
       cx="0"
       cy="0"
       r="1"
       gradientUnits="userSpaceOnUse"
       gradientTransform="matrix(207.65134,0,0,-29.743011,400.00049,129.36621)"
       spreadMethod="pad"
       id="radialGradient188"><stop
         style="stop-opacity:1;stop-color:#808080"
         offset="0"
         id="stop190" /><stop
         style="stop-opacity:1;stop-color:#cccbcb"
         offset="1"
         id="stop192" /></radialGradient></defs><sodipodi:namedview
     pagecolor="#ffffff"
     bordercolor="#666666"
     borderopacity="1"
     objecttolerance="10"
     gridtolerance="10"
     guidetolerance="10"
     inkscape:pageopacity="0"
     inkscape:pageshadow="2"
     inkscape:window-width="1440"
     inkscape:window-height="851"
     id="namedview4"
     showgrid="false"
     fit-margin-top="0"
     fit-margin-left="0"
     fit-margin-right="0"
     fit-margin-bottom="0"
     inkscape:zoom="3.776"
     inkscape:cx="102.07835"
     inkscape:cy="38.111258"
     inkscape:window-x="701"
     inkscape:window-y="118"
     inkscape:window-maximized="0"
     inkscape:current-layer="g34" /><g
     id="g10"
     inkscape:groupmode="layer"
     inkscape:label="338"
     transform="matrix(1.25,0,0,-1.25,-128.2317,420.22274)"><g
       id="g34"><g
         id="g4688"><circle
           style="fill:#00dde5;fill-opacity:1"
           id="circle4641"
           cx="142.58536"
           cy="296.17819"
           r="40" /><path
           inkscape:connector-curvature="0"
           id="path4599"
           d="m 123.88469,277.91507 c -4.17531,0.57699 -7.50653,4.71593 -6.94513,8.94221 -0.008,6.9949 -0.16223,13.99763 0.10279,20.98733 0.64048,4.14629 4.93949,7.22365 9.06858,6.66159 6.84596,-0.007 13.69212,0.04 20.5379,-0.0282 4.12389,-0.6901 7.31378,-4.76169 6.93772,-8.94007 0.24962,-0.98687 -0.44037,-4.09085 0.39472,-3.60709 3.88011,3.85239 7.70038,7.76628 11.6685,11.52902 1.59732,0.71502 3.09327,-1.10804 2.61558,-2.62902 0,-10.22631 0,-20.45262 0,-30.67893 -1.32553,-2.95837 -4.33679,-0.0724 -5.47219,1.51219 -3.06968,3.02551 -6.10845,6.08214 -9.16219,9.12368 -0.13909,-3.40073 0.50193,-7.3632 -2.07942,-10.06756 -1.77589,-2.12278 -4.60962,-3.19556 -7.34652,-2.85801 -6.77342,0.003 -13.54756,-0.0701 -20.32034,0.0529 z"
           style="fill:#ffffff" /></g></g></g></svg>