<?xml version="1.0" encoding="UTF-8" standalone="no"?>
<!-- Created with Inkscape (http://www.inkscape.org/) -->

<svg
   xmlns:dc="http://purl.org/dc/elements/1.1/"
   xmlns:cc="http://creativecommons.org/ns#"
   xmlns:rdf="http://www.w3.org/1999/02/22-rdf-syntax-ns#"
   xmlns:svg="http://www.w3.org/2000/svg"
   xmlns="http://www.w3.org/2000/svg"
   xmlns:sodipodi="http://sodipodi.sourceforge.net/DTD/sodipodi-0.dtd"
   xmlns:inkscape="http://www.inkscape.org/namespaces/inkscape"
   id="svg2"
   version="1.1"
   inkscape:version="0.91 r13725"
   xml:space="preserve"
   width="100"
   height="100"
   viewBox="0 0 100 99.999999"
   sodipodi:docname="miscellaneous.svg"><metadata
     id="metadata8"><rdf:RDF><cc:Work
         rdf:about=""><dc:format>image/svg+xml</dc:format><dc:type
           rdf:resource="http://purl.org/dc/dcmitype/StillImage" /><dc:title></dc:title></cc:Work></rdf:RDF></metadata><defs
     id="defs6"><clipPath
       clipPathUnits="userSpaceOnUse"
       id="clipPath16"><path
         d="M 0,0 800,0 800,800 0,800 0,0 Z"
         id="path18"
         inkscape:connector-curvature="0" /></clipPath><radialGradient
       fx="0"
       fy="0"
       cx="0"
       cy="0"
       r="1"
       gradientUnits="userSpaceOnUse"
       gradientTransform="matrix(347.29813,347.29813,347.29813,-347.29813,409.0918,387.91016)"
       spreadMethod="pad"
       id="radialGradient24"><stop
         style="stop-opacity:1;stop-color:#ffffff"
         offset="0"
         id="stop26" /><stop
         style="stop-opacity:1;stop-color:#ffffff"
         offset="0.228928"
         id="stop28" /><stop
         style="stop-opacity:1;stop-color:#9db3c0"
         offset="1"
         id="stop30" /></radialGradient><clipPath
       clipPathUnits="userSpaceOnUse"
       id="clipPath38"><path
         d="M 0,800 800,800 800,0 0,0 0,800 Z"
         id="path40"
         inkscape:connector-curvature="0" /></clipPath><clipPath
       clipPathUnits="userSpaceOnUse"
       id="clipPath158"><path
         d="m 179.614,164.774 440.772,0 0,-70.815 -440.772,0 0,70.815 z"
         id="path160"
         inkscape:connector-curvature="0" /></clipPath><clipPath
       clipPathUnits="userSpaceOnUse"
       id="clipPath162"><path
         d="m 620.386,129.369 c 0,-19.558 -98.667,-35.41 -220.388,-35.41 -121.714,0 -220.384,15.852 -220.384,35.41 0,19.556 98.67,35.405 220.384,35.405 121.721,0 220.388,-15.849 220.388,-35.405"
         id="path164"
         inkscape:connector-curvature="0" /></clipPath><clipPath
       clipPathUnits="userSpaceOnUse"
       id="clipPath166"><path
         d="m -32767,32767 65534,0 0,-65534 -65534,0 0,65534 z"
         id="path168"
         inkscape:connector-curvature="0" /></clipPath><radialGradient
       fx="0"
       fy="0"
       cx="0"
       cy="0"
       r="1"
       gradientUnits="userSpaceOnUse"
       gradientTransform="matrix(207.65134,0,0,-29.743011,400.00049,129.36621)"
       spreadMethod="pad"
       id="radialGradient170"><stop
         style="stop-opacity:1;stop-color:#ffffff"
         offset="0"
         id="stop172" /><stop
         style="stop-opacity:0;stop-color:#ffffff"
         offset="1"
         id="stop174" /></radialGradient><mask
       maskUnits="userSpaceOnUse"
       x="0"
       y="0"
       width="1"
       height="1"
       id="mask176"><g
         id="g178"><g
           clip-path="url(#clipPath166)"
           id="g180"><g
             id="g182"><g
               id="g184"><path
                 d="m -32767,32767 65534,0 0,-65534 -65534,0 0,65534 z"
                 style="fill:url(#radialGradient170);stroke:none"
                 id="path186"
                 inkscape:connector-curvature="0" /></g></g></g></g></mask><radialGradient
       fx="0"
       fy="0"
       cx="0"
       cy="0"
       r="1"
       gradientUnits="userSpaceOnUse"
       gradientTransform="matrix(207.65134,0,0,-29.743011,400.00049,129.36621)"
       spreadMethod="pad"
       id="radialGradient188"><stop
         style="stop-opacity:1;stop-color:#808080"
         offset="0"
         id="stop190" /><stop
         style="stop-opacity:1;stop-color:#cccbcb"
         offset="1"
         id="stop192" /></radialGradient></defs><sodipodi:namedview
     pagecolor="#ffffff"
     bordercolor="#666666"
     borderopacity="1"
     objecttolerance="10"
     gridtolerance="10"
     guidetolerance="10"
     inkscape:pageopacity="0"
     inkscape:pageshadow="2"
     inkscape:window-width="1440"
     inkscape:window-height="851"
     id="namedview4"
     showgrid="false"
     fit-margin-top="0"
     fit-margin-left="0"
     fit-margin-right="0"
     fit-margin-bottom="0"
     inkscape:zoom="5.12"
     inkscape:cx="55.41649"
     inkscape:cy="53.09098"
     inkscape:window-x="0"
     inkscape:window-y="1"
     inkscape:window-maximized="1"
     inkscape:current-layer="g34" /><g
     id="g10"
     inkscape:groupmode="layer"
     inkscape:label="338"
     transform="matrix(1.25,0,0,-1.25,-186.90403,205.44546)"><g
       id="g34"><circle
         style="fill:#00dde5;fill-opacity:1"
         id="circle4738"
         cx="189.52322"
         cy="124.35637"
         r="40" /><g
         transform="scale(1,-1)"
         style="font-style:normal;font-variant:normal;font-weight:bold;font-stretch:normal;font-size:32px;line-height:125%;font-family:'Roboto Slab';-inkscape-font-specification:'Roboto Slab Bold';letter-spacing:0px;word-spacing:0px;fill:#ffffff;fill-opacity:1;stroke:none;stroke-width:1px;stroke-linecap:butt;stroke-linejoin:miter;stroke-opacity:1"
         id="text4162"><path
           style="font-size:56px"
           d="m 184.61595,-115.48332 c 0.0127,-2.49437 0.31523,-5.26415 2.26953,-7.04614 2.1665,-2.30746 5.15166,-3.85949 6.64667,-6.76245 1.3215,-2.48941 1.39373,-6.16113 -0.9722,-8.05744 -2.39369,-1.6946 -6.53031,-1.15271 -7.73892,1.74787 -0.45425,0.93935 0.0437,2.47235 -1.42332,2.04394 -2.23715,0 -4.4743,0 -6.71145,0 -0.33565,-3.43085 1.27819,-7.08411 4.31261,-8.85682 3.88963,-2.40841 8.8201,-2.58793 13.17189,-1.53872 4.0889,1.00159 7.55056,4.47045 8.07847,8.71694 0.6203,3.3692 -0.33548,6.93361 -2.54099,9.55075 -1.35544,1.83393 -3.19925,3.19614 -5.01336,4.53262 -1.73055,1.32785 -2.18745,3.60175 -2.12192,5.66945 -2.65232,0 -5.30475,0 -7.95701,0 z m 8.01172,11.32031 c -2.67969,0 -5.35937,0 -8.03906,0 0,-2.27865 0,-4.55729 0,-6.83594 2.67969,0 5.35937,0 8.03906,0 0,2.27865 0,4.55729 0,6.83594 z"
           id="path4167"
           inkscape:connector-curvature="0" /></g></g></g></svg>