<?xml version="1.0" encoding="UTF-8" standalone="no"?>
<!-- Created with Inkscape (http://www.inkscape.org/) -->

<svg
   xmlns:dc="http://purl.org/dc/elements/1.1/"
   xmlns:cc="http://creativecommons.org/ns#"
   xmlns:rdf="http://www.w3.org/1999/02/22-rdf-syntax-ns#"
   xmlns:svg="http://www.w3.org/2000/svg"
   xmlns="http://www.w3.org/2000/svg"
   xmlns:sodipodi="http://sodipodi.sourceforge.net/DTD/sodipodi-0.dtd"
   xmlns:inkscape="http://www.inkscape.org/namespaces/inkscape"
   id="svg2"
   version="1.1"
   inkscape:version="0.91 r13725"
   xml:space="preserve"
   width="100"
   height="100"
   viewBox="0 0 100 99.999999"
   sodipodi:docname="recital.svg"><metadata
     id="metadata8"><rdf:RDF><cc:Work
         rdf:about=""><dc:format>image/svg+xml</dc:format><dc:type
           rdf:resource="http://purl.org/dc/dcmitype/StillImage" /><dc:title></dc:title></cc:Work></rdf:RDF></metadata><defs
     id="defs6"><clipPath
       clipPathUnits="userSpaceOnUse"
       id="clipPath16"><path
         d="M 0,0 800,0 800,800 0,800 0,0 Z"
         id="path18"
         inkscape:connector-curvature="0" /></clipPath><radialGradient
       fx="0"
       fy="0"
       cx="0"
       cy="0"
       r="1"
       gradientUnits="userSpaceOnUse"
       gradientTransform="matrix(347.29813,347.29813,347.29813,-347.29813,409.0918,387.91016)"
       spreadMethod="pad"
       id="radialGradient24"><stop
         style="stop-opacity:1;stop-color:#ffffff"
         offset="0"
         id="stop26" /><stop
         style="stop-opacity:1;stop-color:#ffffff"
         offset="0.228928"
         id="stop28" /><stop
         style="stop-opacity:1;stop-color:#9db3c0"
         offset="1"
         id="stop30" /></radialGradient><clipPath
       clipPathUnits="userSpaceOnUse"
       id="clipPath38"><path
         d="M 0,800 800,800 800,0 0,0 0,800 Z"
         id="path40"
         inkscape:connector-curvature="0" /></clipPath><clipPath
       clipPathUnits="userSpaceOnUse"
       id="clipPath158"><path
         d="m 179.614,164.774 440.772,0 0,-70.815 -440.772,0 0,70.815 z"
         id="path160"
         inkscape:connector-curvature="0" /></clipPath><clipPath
       clipPathUnits="userSpaceOnUse"
       id="clipPath162"><path
         d="m 620.386,129.369 c 0,-19.558 -98.667,-35.41 -220.388,-35.41 -121.714,0 -220.384,15.852 -220.384,35.41 0,19.556 98.67,35.405 220.384,35.405 121.721,0 220.388,-15.849 220.388,-35.405"
         id="path164"
         inkscape:connector-curvature="0" /></clipPath><clipPath
       clipPathUnits="userSpaceOnUse"
       id="clipPath166"><path
         d="m -32767,32767 65534,0 0,-65534 -65534,0 0,65534 z"
         id="path168"
         inkscape:connector-curvature="0" /></clipPath><radialGradient
       fx="0"
       fy="0"
       cx="0"
       cy="0"
       r="1"
       gradientUnits="userSpaceOnUse"
       gradientTransform="matrix(207.65134,0,0,-29.743011,400.00049,129.36621)"
       spreadMethod="pad"
       id="radialGradient170"><stop
         style="stop-opacity:1;stop-color:#ffffff"
         offset="0"
         id="stop172" /><stop
         style="stop-opacity:0;stop-color:#ffffff"
         offset="1"
         id="stop174" /></radialGradient><mask
       maskUnits="userSpaceOnUse"
       x="0"
       y="0"
       width="1"
       height="1"
       id="mask176"><g
         id="g178"><g
           clip-path="url(#clipPath166)"
           id="g180"><g
             id="g182"><g
               id="g184"><path
                 d="m -32767,32767 65534,0 0,-65534 -65534,0 0,65534 z"
                 style="fill:url(#radialGradient170);stroke:none"
                 id="path186"
                 inkscape:connector-curvature="0" /></g></g></g></g></mask><radialGradient
       fx="0"
       fy="0"
       cx="0"
       cy="0"
       r="1"
       gradientUnits="userSpaceOnUse"
       gradientTransform="matrix(207.65134,0,0,-29.743011,400.00049,129.36621)"
       spreadMethod="pad"
       id="radialGradient188"><stop
         style="stop-opacity:1;stop-color:#808080"
         offset="0"
         id="stop190" /><stop
         style="stop-opacity:1;stop-color:#cccbcb"
         offset="1"
         id="stop192" /></radialGradient></defs><sodipodi:namedview
     pagecolor="#ffffff"
     bordercolor="#666666"
     borderopacity="1"
     objecttolerance="10"
     gridtolerance="10"
     guidetolerance="10"
     inkscape:pageopacity="0"
     inkscape:pageshadow="2"
     inkscape:window-width="1440"
     inkscape:window-height="851"
     id="namedview4"
     showgrid="false"
     fit-margin-top="0"
     fit-margin-left="0"
     fit-margin-right="0"
     fit-margin-bottom="0"
     inkscape:zoom="1.28"
     inkscape:cx="169.47899"
     inkscape:cy="170.27848"
     inkscape:window-x="0"
     inkscape:window-y="1"
     inkscape:window-maximized="1"
     inkscape:current-layer="g34" /><g
     id="g10"
     inkscape:groupmode="layer"
     inkscape:label="338"
     transform="matrix(1.25,0,0,-1.25,-186.90403,205.44546)"><g
       id="g34"><circle
         style="fill:#00dde5;fill-opacity:1"
         id="circle4738"
         cx="189.52322"
         cy="124.35637"
         r="40" /><path
         style="fill:#ffffff"
         d="m 186.38793,96.17744 c -4.20456,0.416651 -8.09431,2.259028 -11.08631,5.251 -4.30645,4.30646 -6.19635,10.55403 -4.99475,16.51155 0.68528,3.39766 1.68549,6.08897 4.73481,12.7402 1.82875,3.98889 1.96453,4.45397 2.04654,7.01016 0.13734,4.28098 -1.05745,10.07489 -3.4882,16.91558 -0.42569,1.19794 -0.48834,2.07579 -0.17959,2.51659 0.17557,0.25066 0.2754,0.27837 0.83536,0.23194 0.57021,-0.0473 0.94982,-0.24883 3.67143,-1.94929 3.32257,-2.07593 11.59235,-7.12493 20.00923,-12.21637 2.9655,-1.79383 5.55773,-3.41652 5.76052,-3.60596 0.24887,-0.23247 0.36874,-0.46112 0.36874,-0.70335 0,-0.76902 -0.76451,-1.07533 -3.11988,-1.25 -7.3699,-0.54656 -14.42425,-2.76045 -17.20775,-5.40037 -0.4534,-0.43002 -0.44747,-0.5108 0.0243,-0.33141 1.13468,0.43141 5.08225,0.63513 6.93016,0.35765 8.0665,-1.21128 14.22467,-7.36945 15.43596,-15.43595 0.18305,-1.2191 0.16068,-4.0279 -0.0426,-5.34095 -0.57866,-3.73856 -2.2402,-7.07672 -4.87659,-9.7973 -2.36743,-2.443054 -4.88877,-3.9571 -8.12464,-4.878777 -2.10629,-0.599941 -4.60042,-0.832691 -6.69683,-0.624943 z m 4.93758,5.46438 c 2.38452,0.67204 4.46016,1.84876 5.85196,3.31764 0.2931,0.3093 0.42959,0.53603 0.34213,0.56825 -0.7115,0.262 -1.96476,1.72205 -2.59632,3.02477 -0.7645,1.57688 -0.85424,2.11435 -0.8578,5.13806 -0.004,4.18808 -0.30829,6.27079 -0.92618,6.35894 -0.15566,0.0222 -0.30091,-0.0506 -0.36446,-0.18287 -0.0582,-0.12089 -0.13366,-2.88061 -0.16792,-6.13272 l -0.0622,-5.9129 -0.32673,-0.69712 c -0.46183,-0.98535 -1.29828,-1.83693 -2.1476,-2.18647 -0.58557,-0.24099 -0.90739,-0.28616 -2.03655,-0.2858 -1.21529,3.7e-4 -1.39862,0.0308 -1.95478,0.32397 -1.24628,0.65704 -2.10356,1.83487 -2.37151,3.25828 -0.0719,0.38196 -0.12362,2.93473 -0.12362,6.1019 0,4.07257 -0.0369,5.48204 -0.14631,5.59147 -0.23823,0.23824 -0.92391,0.18079 -1.06857,-0.0895 -0.0805,-0.15033 -0.1262,-1.8668 -0.1262,-4.73521 0,-4.08377 -0.0223,-4.58651 -0.24117,-5.44235 -0.41795,-1.63418 -1.37985,-3.01338 -2.6863,-3.85172 -0.33445,-0.21463 -0.60808,-0.43592 -0.60808,-0.49179 0,-0.15907 1.55933,-1.4442 2.46293,-2.02983 1.34038,-0.86872 3.39063,-1.64586 5.03488,-1.90842 0.20116,-0.0321 1.24354,-0.0401 2.31641,-0.0177 1.47502,0.0308 2.15872,0.0993 2.80405,0.28118 z m -2.72755,6.92922 c 0.13484,0.16233 0.17916,1.35295 0.22829,6.13292 l 0.061,5.93149 0.44974,0.90771 c 0.73519,1.48385 1.91075,2.26795 3.59512,2.39798 2.33537,0.18026 3.92906,-1.31666 4.63675,-4.35528 0.13212,-0.56723 0.20668,-1.86849 0.26237,-4.57848 l 0.0778,-3.78601 0.46295,-0.93642 c 0.46843,-0.94748 1.13849,-1.6395 1.46585,-1.51389 0.1871,0.0718 0.71862,1.4771 1.00094,2.64644 0.30188,1.2504 0.36538,3.63264 0.13238,4.96705 -0.49004,2.80652 -1.64589,5.02947 -3.66488,7.04847 -2.68526,2.68526 -5.9468,3.96097 -9.69913,3.79369 -3.23464,-0.14419 -5.98553,-1.28599 -8.25977,-3.42831 -2.00544,-1.88911 -3.14095,-3.79431 -3.89123,-6.52894 -0.17132,-0.6244 -0.21732,-1.25781 -0.21698,-2.98693 3e-4,-1.89599 0.0378,-2.33208 0.27533,-3.20596 0.32865,-1.20921 0.81103,-2.34121 0.99767,-2.34121 0.23979,0 0.78486,0.33529 1.12191,0.69013 0.7404,0.77947 0.75065,0.85821 0.82358,6.32686 l 0.0668,5.00538 0.41661,0.82033 c 0.48595,0.95684 1.11115,1.56587 2.06803,2.01455 0.60918,0.28564 0.82713,0.32035 1.96529,0.31308 1.12362,-0.007 1.36212,-0.0475 1.95096,-0.33039 1.2175,-0.58478 2.12392,-1.79345 2.42488,-3.23347 0.0872,-0.41702 0.13504,-2.5858 0.13504,-6.11756 0,-4.81154 0.0231,-5.49461 0.19158,-5.66308 0.24967,-0.24967 0.70972,-0.24476 0.92121,0.01 z m 23.00031,-8.583139 -0.0348,1.249629 -3.62549,0.0323 -3.62548,0.0323 0.44339,0.61719 c 0.24388,0.33945 0.87661,1.47702 1.40605,2.52794 l 0.96264,1.91076 2.21944,0.061 2.21945,0.061 0.0348,1.24964 0.0348,1.24963 2.55595,0 2.55597,0 0,-5.12046 0,-5.120468 -2.55597,0 -2.55595,0 -0.0348,1.249646 z"
         id="path4819"
         inkscape:connector-curvature="0" /></g></g></svg>