<?xml version="1.0" encoding="UTF-8" standalone="no"?>
<!-- Created with Inkscape (http://www.inkscape.org/) -->

<svg
   xmlns:dc="http://purl.org/dc/elements/1.1/"
   xmlns:cc="http://creativecommons.org/ns#"
   xmlns:rdf="http://www.w3.org/1999/02/22-rdf-syntax-ns#"
   xmlns:svg="http://www.w3.org/2000/svg"
   xmlns="http://www.w3.org/2000/svg"
   xmlns:sodipodi="http://sodipodi.sourceforge.net/DTD/sodipodi-0.dtd"
   xmlns:inkscape="http://www.inkscape.org/namespaces/inkscape"
   id="svg2"
   version="1.1"
   inkscape:version="0.91 r13725"
   xml:space="preserve"
   width="100"
   height="100"
   viewBox="0 0 100 99.999999"
   sodipodi:docname="vocal-coaching.svg"><metadata
     id="metadata8"><rdf:RDF><cc:Work
         rdf:about=""><dc:format>image/svg+xml</dc:format><dc:type
           rdf:resource="http://purl.org/dc/dcmitype/StillImage" /><dc:title></dc:title></cc:Work></rdf:RDF></metadata><defs
     id="defs6"><clipPath
       clipPathUnits="userSpaceOnUse"
       id="clipPath16"><path
         d="M 0,0 800,0 800,800 0,800 0,0 Z"
         id="path18"
         inkscape:connector-curvature="0" /></clipPath><radialGradient
       fx="0"
       fy="0"
       cx="0"
       cy="0"
       r="1"
       gradientUnits="userSpaceOnUse"
       gradientTransform="matrix(347.29813,347.29813,347.29813,-347.29813,409.0918,387.91016)"
       spreadMethod="pad"
       id="radialGradient24"><stop
         style="stop-opacity:1;stop-color:#ffffff"
         offset="0"
         id="stop26" /><stop
         style="stop-opacity:1;stop-color:#ffffff"
         offset="0.228928"
         id="stop28" /><stop
         style="stop-opacity:1;stop-color:#9db3c0"
         offset="1"
         id="stop30" /></radialGradient><clipPath
       clipPathUnits="userSpaceOnUse"
       id="clipPath38"><path
         d="M 0,800 800,800 800,0 0,0 0,800 Z"
         id="path40"
         inkscape:connector-curvature="0" /></clipPath><clipPath
       clipPathUnits="userSpaceOnUse"
       id="clipPath158"><path
         d="m 179.614,164.774 440.772,0 0,-70.815 -440.772,0 0,70.815 z"
         id="path160"
         inkscape:connector-curvature="0" /></clipPath><clipPath
       clipPathUnits="userSpaceOnUse"
       id="clipPath162"><path
         d="m 620.386,129.369 c 0,-19.558 -98.667,-35.41 -220.388,-35.41 -121.714,0 -220.384,15.852 -220.384,35.41 0,19.556 98.67,35.405 220.384,35.405 121.721,0 220.388,-15.849 220.388,-35.405"
         id="path164"
         inkscape:connector-curvature="0" /></clipPath><clipPath
       clipPathUnits="userSpaceOnUse"
       id="clipPath166"><path
         d="m -32767,32767 65534,0 0,-65534 -65534,0 0,65534 z"
         id="path168"
         inkscape:connector-curvature="0" /></clipPath><radialGradient
       fx="0"
       fy="0"
       cx="0"
       cy="0"
       r="1"
       gradientUnits="userSpaceOnUse"
       gradientTransform="matrix(207.65134,0,0,-29.743011,400.00049,129.36621)"
       spreadMethod="pad"
       id="radialGradient170"><stop
         style="stop-opacity:1;stop-color:#ffffff"
         offset="0"
         id="stop172" /><stop
         style="stop-opacity:0;stop-color:#ffffff"
         offset="1"
         id="stop174" /></radialGradient><mask
       maskUnits="userSpaceOnUse"
       x="0"
       y="0"
       width="1"
       height="1"
       id="mask176"><g
         id="g178"><g
           clip-path="url(#clipPath166)"
           id="g180"><g
             id="g182"><g
               id="g184"><path
                 d="m -32767,32767 65534,0 0,-65534 -65534,0 0,65534 z"
                 style="fill:url(#radialGradient170);stroke:none"
                 id="path186"
                 inkscape:connector-curvature="0" /></g></g></g></g></mask><radialGradient
       fx="0"
       fy="0"
       cx="0"
       cy="0"
       r="1"
       gradientUnits="userSpaceOnUse"
       gradientTransform="matrix(207.65134,0,0,-29.743011,400.00049,129.36621)"
       spreadMethod="pad"
       id="radialGradient188"><stop
         style="stop-opacity:1;stop-color:#808080"
         offset="0"
         id="stop190" /><stop
         style="stop-opacity:1;stop-color:#cccbcb"
         offset="1"
         id="stop192" /></radialGradient></defs><sodipodi:namedview
     pagecolor="#ffffff"
     bordercolor="#666666"
     borderopacity="1"
     objecttolerance="10"
     gridtolerance="10"
     guidetolerance="10"
     inkscape:pageopacity="0"
     inkscape:pageshadow="2"
     inkscape:window-width="1440"
     inkscape:window-height="851"
     id="namedview4"
     showgrid="false"
     fit-margin-top="0"
     fit-margin-left="0"
     fit-margin-right="0"
     fit-margin-bottom="0"
     inkscape:zoom="3.776"
     inkscape:cx="-17.889869"
     inkscape:cy="46.850649"
     inkscape:window-x="15"
     inkscape:window-y="31"
     inkscape:window-maximized="0"
     inkscape:current-layer="g34" /><g
     id="g10"
     inkscape:groupmode="layer"
     inkscape:label="338"
     transform="matrix(1.25,0,0,-1.25,-248.19992,411.48335)"><g
       id="g34"><circle
         style="fill:#00dde5;fill-opacity:1"
         id="path4496"
         cx="238.55994"
         cy="289.18668"
         r="40" /><g
         id="g4491"
         transform="matrix(0.13113672,0,0,0.13798804,181.79709,234.26296)"
         style="fill:#ffffff"><path
           inkscape:connector-curvature="0"
           id="path148"
           style="fill:#ffffff;fill-opacity:1;fill-rule:nonzero;stroke:none"
           d="m 509.20657,477.64498 c 1.519,9.585 10.519,16.127 20.105,14.609 9.585,-1.516 16.128,-10.519 14.611,-20.104 -1.519,-9.586 -10.52,-16.128 -20.105,-14.611 -9.587,1.518 -16.128,10.521 -14.611,20.106 m 71.597,-24.074 27.528,53.683 -46.266,-7.977 c -14.084,18.32 -34.933,31.492 -59.559,35.39 -44.473,7.041 -86.574,-18.482 -102.039,-58.921 l -0.001,0 c -0.002,-0.006 -0.004,-0.012 -0.006,-0.018 -0.895,-2.34 -1.704,-4.728 -2.415,-7.165 -2.334,-6.6 -4.893,-12.953 -7.653,-19.065 -35.638,4.49 -83.846,20.31 -128.611,67.12 -15.824,-63.884 -5.076,-127.488 44.228,-167.758 -54.602,-38.652 -109.547,-48.857 -109.547,-48.857 0,0 141.848,-77.808 260.412,-39.719 118.562,38.091 123.766,169.323 123.766,169.323 l -0.025,0.006 c 1.108,8.127 1.137,16.163 0.188,23.958" /><path
           sodipodi:nodetypes="cccc"
           inkscape:connector-curvature="0"
           id="rect3641"
           d="m 627.53365,451.54486 -54.52118,-33.31071 -7.45837,51.59788 z"
           style="fill:#ffffff" /><path
           inkscape:connector-curvature="0"
           id="path3668"
           d="m 636.47859,479.42358 c -1.95501,0.44021 -2.95268,0.94656 -4.24295,2.15346 -3.46227,3.23854 -3.03698,8.59999 1.04207,13.13688 2.21693,2.46576 6.02573,4.67649 9.31947,5.40928 1.75767,0.39105 5.55247,0.37296 6.88003,-0.0328 l 0.53419,-0.16327 0,23.17591 0,23.17591 2.4417,0 2.44169,0 0.42382,-0.71746 c 0.84527,-1.43093 3.30462,-4.32807 6.39089,-7.52853 5.90762,-6.12621 7.69593,-9.53945 7.48275,-14.28187 -0.0871,-1.9368 -0.21752,-2.53137 -0.86186,-3.92781 -0.41759,-0.90505 -1.02275,-1.99098 -1.34478,-2.41319 l -0.58552,-0.76765 1.04485,-1.97904 c 1.37534,-2.60502 1.79729,-4.13624 1.79729,-6.52227 0,-4.27806 -2.65812,-8.63871 -6.42501,-10.54023 -0.77538,-0.39141 -1.40977,-0.671 -1.40977,-0.62131 0,0.0497 0.47368,1.09289 1.05262,2.31824 1.55513,3.29145 2.32369,5.75501 2.45534,7.87036 0.10634,1.7086 0.0597,1.95552 -0.63548,3.36773 -0.45683,0.92793 -1.19643,1.92463 -1.89109,2.54844 -1.06011,0.952 -6.6099,4.22964 -7.16173,4.22964 -0.16681,0 -0.23749,-4.18663 -0.2199,-13.02519 0.0184,-9.25062 -0.0544,-13.3271 -0.25124,-14.06699 -1.07661,-4.04698 -5.55958,-8.39992 -10.36998,-10.06922 -2.96696,-1.02959 -5.52508,-1.26544 -7.9074,-0.72902 z m 28.84632,40.11362 c 0.48659,2.31873 0.39421,3.08494 -0.61568,5.1059 -0.86721,1.73545 -1.98778,2.74195 -4.845,4.3518 -1.17521,0.66216 -2.59082,1.46106 -3.14578,1.77535 l -1.00903,0.57141 0,-2.01344 0,-2.01345 1.48077,-1.96512 c 1.66581,-2.21069 7.26077,-8.09019 7.53651,-7.91978 0.0986,0.0609 0.36776,1.00922 0.59821,2.10733 z"
           style="fill:#ffffff" /></g></g></g></svg>