<?xml version="1.0" encoding="UTF-8" standalone="no"?>
<!-- Created with Inkscape (http://www.inkscape.org/) -->

<svg
   xmlns:dc="http://purl.org/dc/elements/1.1/"
   xmlns:cc="http://creativecommons.org/ns#"
   xmlns:rdf="http://www.w3.org/1999/02/22-rdf-syntax-ns#"
   xmlns:svg="http://www.w3.org/2000/svg"
   xmlns="http://www.w3.org/2000/svg"
   xmlns:sodipodi="http://sodipodi.sourceforge.net/DTD/sodipodi-0.dtd"
   xmlns:inkscape="http://www.inkscape.org/namespaces/inkscape"
   id="svg2"
   version="1.1"
   inkscape:version="0.91 r13725"
   xml:space="preserve"
   width="100"
   height="100"
   viewBox="0 0 100 99.999999"
   sodipodi:docname="voice-lesson-accompaniment.svg"><metadata
     id="metadata8"><rdf:RDF><cc:Work
         rdf:about=""><dc:format>image/svg+xml</dc:format><dc:type
           rdf:resource="http://purl.org/dc/dcmitype/StillImage" /><dc:title></dc:title></cc:Work></rdf:RDF></metadata><defs
     id="defs6"><clipPath
       clipPathUnits="userSpaceOnUse"
       id="clipPath16"><path
         d="M 0,0 800,0 800,800 0,800 0,0 Z"
         id="path18"
         inkscape:connector-curvature="0" /></clipPath><radialGradient
       fx="0"
       fy="0"
       cx="0"
       cy="0"
       r="1"
       gradientUnits="userSpaceOnUse"
       gradientTransform="matrix(347.29813,347.29813,347.29813,-347.29813,409.0918,387.91016)"
       spreadMethod="pad"
       id="radialGradient24"><stop
         style="stop-opacity:1;stop-color:#ffffff"
         offset="0"
         id="stop26" /><stop
         style="stop-opacity:1;stop-color:#ffffff"
         offset="0.228928"
         id="stop28" /><stop
         style="stop-opacity:1;stop-color:#9db3c0"
         offset="1"
         id="stop30" /></radialGradient><clipPath
       clipPathUnits="userSpaceOnUse"
       id="clipPath38"><path
         d="M 0,800 800,800 800,0 0,0 0,800 Z"
         id="path40"
         inkscape:connector-curvature="0" /></clipPath><clipPath
       clipPathUnits="userSpaceOnUse"
       id="clipPath158"><path
         d="m 179.614,164.774 440.772,0 0,-70.815 -440.772,0 0,70.815 z"
         id="path160"
         inkscape:connector-curvature="0" /></clipPath><clipPath
       clipPathUnits="userSpaceOnUse"
       id="clipPath162"><path
         d="m 620.386,129.369 c 0,-19.558 -98.667,-35.41 -220.388,-35.41 -121.714,0 -220.384,15.852 -220.384,35.41 0,19.556 98.67,35.405 220.384,35.405 121.721,0 220.388,-15.849 220.388,-35.405"
         id="path164"
         inkscape:connector-curvature="0" /></clipPath><clipPath
       clipPathUnits="userSpaceOnUse"
       id="clipPath166"><path
         d="m -32767,32767 65534,0 0,-65534 -65534,0 0,65534 z"
         id="path168"
         inkscape:connector-curvature="0" /></clipPath><radialGradient
       fx="0"
       fy="0"
       cx="0"
       cy="0"
       r="1"
       gradientUnits="userSpaceOnUse"
       gradientTransform="matrix(207.65134,0,0,-29.743011,400.00049,129.36621)"
       spreadMethod="pad"
       id="radialGradient170"><stop
         style="stop-opacity:1;stop-color:#ffffff"
         offset="0"
         id="stop172" /><stop
         style="stop-opacity:0;stop-color:#ffffff"
         offset="1"
         id="stop174" /></radialGradient><mask
       maskUnits="userSpaceOnUse"
       x="0"
       y="0"
       width="1"
       height="1"
       id="mask176"><g
         id="g178"><g
           clip-path="url(#clipPath166)"
           id="g180"><g
             id="g182"><g
               id="g184"><path
                 d="m -32767,32767 65534,0 0,-65534 -65534,0 0,65534 z"
                 style="fill:url(#radialGradient170);stroke:none"
                 id="path186"
                 inkscape:connector-curvature="0" /></g></g></g></g></mask><radialGradient
       fx="0"
       fy="0"
       cx="0"
       cy="0"
       r="1"
       gradientUnits="userSpaceOnUse"
       gradientTransform="matrix(207.65134,0,0,-29.743011,400.00049,129.36621)"
       spreadMethod="pad"
       id="radialGradient188"><stop
         style="stop-opacity:1;stop-color:#808080"
         offset="0"
         id="stop190" /><stop
         style="stop-opacity:1;stop-color:#cccbcb"
         offset="1"
         id="stop192" /></radialGradient></defs><sodipodi:namedview
     pagecolor="#ffffff"
     bordercolor="#666666"
     borderopacity="1"
     objecttolerance="10"
     gridtolerance="10"
     guidetolerance="10"
     inkscape:pageopacity="0"
     inkscape:pageshadow="2"
     inkscape:window-width="1440"
     inkscape:window-height="851"
     id="namedview4"
     showgrid="false"
     fit-margin-top="0"
     fit-margin-left="0"
     fit-margin-right="0"
     fit-margin-bottom="0"
     inkscape:zoom="3.6203867"
     inkscape:cx="62.784821"
     inkscape:cy="28.543041"
     inkscape:window-x="0"
     inkscape:window-y="1"
     inkscape:window-maximized="1"
     inkscape:current-layer="g34" /><g
     id="g10"
     inkscape:groupmode="layer"
     inkscape:label="338"
     transform="matrix(1.25,0,0,-1.25,-186.90403,205.44546)"><g
       id="g34"><circle
         style="fill:#00dde5;fill-opacity:1"
         id="circle4738"
         cx="189.52322"
         cy="124.35637"
         r="40" /><path
         style="fill:#ffffff"
         d="m 168.15267,124.35636 c 0,7.54167 0,15.08334 0,22.62501 14.24703,0 28.49407,0 42.7411,0 0,-15.08334 0,-30.16667 0,-45.25001 -14.24703,0 -28.49407,0 -42.7411,0 0,7.54167 0,15.08333 0,22.625 z m 10.28251,-12.79096 c -0.008,2.82999 -0.0153,5.65998 -0.0229,8.48997 -0.82137,0.0166 -1.64274,0.0332 -2.46411,0.0498 0,8.48083 0,16.96165 0,25.44248 -2.12063,0 -4.24126,0 -6.36189,0 0,-14.15743 0,-28.31486 0,-42.47229 2.95724,0 5.91447,0 8.87171,0 -0.008,2.83 -0.0154,5.66012 -0.0228,8.49004 z m 10.30446,0 c -0.008,2.82999 -0.0153,5.65998 -0.0229,8.48997 -0.68931,0.0998 -1.71326,-0.12747 -2.1953,0.17489 0,8.43918 0,16.87835 0,25.31753 -1.55313,0 -3.10627,0 -4.6594,0 0,-8.48251 0,-16.96503 0,-25.44754 -0.56501,-0.18671 -1.91294,0.4095 -1.88169,-0.37347 0,-5.55042 0,-11.10085 0,-16.65128 2.92737,0 5.85473,0 8.7821,0 -0.008,2.8299 -0.0154,5.66033 -0.0228,8.4899 z m 10.30446,0 c -0.008,2.82999 -0.0153,5.65998 -0.0229,8.48997 -0.68931,0.0998 -1.71326,-0.12747 -2.1953,0.17489 0,8.43918 0,16.87835 0,25.31753 -1.46353,0 -2.92706,0 -4.39059,0 0,-8.48251 0,-16.96503 0,-25.44754 -0.67159,-0.0867 -1.68659,0.16994 -2.1505,-0.12449 0,-5.63342 0,-11.26684 0,-16.90026 2.92737,0 5.85473,0 8.7821,0 -0.008,2.8299 -0.0154,5.66033 -0.0228,8.4899 z m 10.3264,12.74616 c 0,7.07872 0,14.15743 0,21.23615 -2.18036,0 -4.36073,0 -6.54109,0 0,-8.48251 0,-16.96503 0,-25.44754 -0.70686,-0.0813 -1.74015,0.16376 -2.2401,-0.12449 0,-5.63342 0,-11.26684 0,-16.90026 2.92706,0 5.85413,0 8.78119,0 0,7.07871 0,14.15743 0,21.23614 z"
         id="path4864"
         inkscape:connector-curvature="0" /></g></g></svg>